<svg xmlns="http://www.w3.org/2000/svg" viewBox="0 0 535.24 535.24"><defs><style>.cls-1,.cls-5{fill:#fedc16;}.cls-1{stroke:#000100;stroke-miterlimit:10;stroke-width:6px;}.cls-2{fill:#d50951;}.cls-3{fill:#fff;}.cls-4{fill:#000100;}</style></defs><title>liga-quadrado-o</title><g id="Layer_2" data-name="Layer 2"><g id="Layer_1-2" data-name="Layer 1"><rect class="cls-1" x="3" y="3" width="529.24" height="529.24"/><polygon id="_Path_" data-name="&lt;Path&gt;" class="cls-2" points="392.81 304.99 392.81 453.04 106.8 453.04 106.8 112.06 286.26 112.06 286.26 304.99 392.81 304.99"/><polygon class="cls-2" points="392.81 453.04 392.81 421.5 428.44 421.5 392.81 453.04"/><polygon class="cls-2" points="141.78 82.19 141.78 112.06 106.8 112.06 141.78 82.19"/><g id="_Group_" data-name="&lt;Group&gt;"><polygon class="cls-3" points="144.62 418.67 144.62 85.03 318.84 85.03 318.84 276.62 425.6 276.62 425.6 418.67 144.62 418.67"/><path class="cls-4" d="M316,87.86V279.45H422.77V415.83H147.45v-328H316m5.67-5.67H141.78V421.5H428.44V273.79H321.67V82.19Z"/><path class="cls-5" d="M321.67,82.19v191.6H428.44V421.5H141.78V82.19H321.67m2.84-2.83H139v345H431.27V271H324.51V79.36Z"/></g></g></g></svg>