<svg xmlns="http://www.w3.org/2000/svg" viewBox="0 0 545 769"><defs><style>.cls-1,.cls-3{fill:#fedc16;}.cls-1{stroke:#000100;stroke-miterlimit:10;stroke-width:6px;}.cls-2{fill:#d50951;}.cls-4{fill:#fff;}.cls-5{fill:#000100;}</style></defs><title>liga-vertical</title><g id="Layer_2" data-name="Layer 2"><g id="Layer_1-2" data-name="Layer 1"><rect id="_Path_" data-name="&lt;Path&gt;" class="cls-1" x="3" y="3" width="539" height="763"/><g id="_Group_" data-name="&lt;Group&gt;"><polygon id="_Path_2" data-name="&lt;Path&gt;" class="cls-2" points="304 259 304 391 49 391 49 87 209 87 209 259 304 259"/><polygon id="_Path_3" data-name="&lt;Path&gt;" class="cls-2" points="463 408 463 711 416 711 416 676 332 676 332 711 283 711 283 408 463 408"/><rect id="_Path_4" data-name="&lt;Path&gt;" class="cls-2" x="323" y="182" width="139" height="209"/><rect id="_Path_5" data-name="&lt;Path&gt;" class="cls-2" x="323" y="87" width="139" height="74"/><polygon id="_Path_6" data-name="&lt;Path&gt;" class="cls-2" points="262 539 262 407 49 407 49 710 156.47 710 196.89 710 209.93 710 262 710 262 577 179 577 179 625 196 625 196 647 156 647 156 539 262 539"/></g><polygon class="cls-2" points="463 711 463 683.65 494.81 683.65 463 711"/><polygon class="cls-2" points="332 711 332 683.65 363.13 683.65 332 711"/><polygon class="cls-2" points="262 710 262 682.34 294.03 682.34 262 710"/><polygon class="cls-2" points="262 538.98 262 511.53 294.03 511.53 262 538.98"/><polygon class="cls-2" points="461.5 390.33 461.5 362.88 493.54 362.88 461.5 390.33"/><polygon class="cls-2" points="461.5 160.84 461.5 133.39 493.54 133.39 461.5 160.84"/><polygon class="cls-2" points="354.01 155.56 354.01 182 323 182 354.01 155.56"/><polygon class="cls-2" points="354.01 60.37 354.01 87 323 87 354.01 60.37"/><polygon class="cls-2" points="80.19 60.37 80.19 87 49 87 80.19 60.37"/><polygon class="cls-2" points="210.7 549.53 210.7 576.98 178.67 576.98 210.7 549.53"/><rect id="_Path_7" data-name="&lt;Path&gt;" class="cls-2" x="49" y="348" width="412.5" height="67"/><polygon class="cls-3" points="294.03 511.53 294.03 538.98 262 538.98 294.03 511.53"/><rect class="cls-3" x="282.08" y="526.15" width="14.79" height="20.42"/><rect class="cls-3" x="292.25" y="513.32" width="4.63" height="33.25"/><polygon class="cls-3" points="282.08 538.98 294.03 538.98 294.03 513.32 291.94 513.32 282.08 521.77 282.08 538.98"/><g id="_Group_2" data-name="&lt;Group&gt;"><polygon class="cls-4" points="83.02 360.05 83.02 63.2 237.74 63.2 237.74 234.02 332.93 234.02 332.93 360.05 83.02 360.05"/><path class="cls-5" d="M234.9,66V236.85h95.19V357.21H85.86V66h149m5.67-5.67H80.19V362.88H335.76V231.18H240.57V60.37Z"/><path class="cls-3" d="M240.57,60.37V231.18h95.19v131.7H80.19V60.37H240.57m2.84-2.84H77.35V365.71H338.59V228.35H243.41V57.53Z"/></g><g id="_Group_3" data-name="&lt;Group&gt;"><polygon class="cls-4" points="450.73 680.81 450.73 645.61 360.31 645.61 360.31 680.81 317.73 680.81 317.73 383.97 492 383.97 492 680.81 450.73 680.81"/><path class="cls-5" d="M489.17,386.8V678h-35.6V642.77h-96.1V678h-36.9V386.8h168.6m5.67-5.66H314.9V683.65h48.24V648.44H447.9v35.21h46.94V381.14Z"/><path class="cls-3" d="M494.84,381.14V683.65H447.9V648.44H363.14v35.21H314.9V381.14H494.84m2.83-2.84H312.06V686.48H366v-35.2h79.08v35.2h52.61V378.3Z"/></g><g id="_Group_4" data-name="&lt;Group&gt;"><rect class="cls-4" x="356.85" y="158.39" width="133.85" height="201.66"/><path class="cls-5" d="M487.87,161.22v196H359.68v-196H487.87m5.66-5.66H354V362.88H493.53V155.56Z"/><path class="cls-3" d="M493.53,155.56V362.88H354V155.56H493.53m2.84-2.84H351.18v213H496.37v-213Z"/></g><g id="_Group_5" data-name="&lt;Group&gt;"><rect class="cls-4" x="356.85" y="63.2" width="133.85" height="67.35"/><path class="cls-5" d="M487.87,66v61.68H359.68V66H487.87m5.66-5.67H354v73H493.53v-73Z"/><path class="cls-3" d="M493.53,60.37v73H354v-73H493.53m2.84-2.84H351.18v78.69H496.37V57.53Z"/></g><g id="_Group_6" data-name="&lt;Group&gt;"><polygon class="cls-4" points="83.02 679.51 83.02 382.67 291.2 382.67 291.2 508.69 184.28 508.69 184.28 600.42 213.42 600.42 213.42 552.18 291.2 552.18 291.2 679.51 83.02 679.51"/><path class="cls-5" d="M288.36,385.5V505.86H181.44v97.4h34.81V555h72.11V676.67H85.86V385.5h202.5m5.67-5.67H80.19V682.34H294v-133H210.58v48.25H187.11V511.53H294V379.83Z"/><path class="cls-3" d="M294,379.83v131.7H187.11v86.06h23.47V549.34H294v133H80.19V379.83H294m2.84-2.83H77.35V685.18H296.87V546.51H207.75v48.24H190V514.36H296.87V377Z"/></g></g></g></svg>