<svg xmlns="http://www.w3.org/2000/svg" viewBox="0 0 545 956.93"><defs><style>.cls-1{fill:#fff;}.cls-2,.cls-4{fill:#fedc16;}.cls-2{stroke:#000100;stroke-miterlimit:10;stroke-width:6px;}.cls-3{fill:#d50951;}.cls-5{fill:#000100;}</style></defs><title>liga</title><g id="Layer_2" data-name="Layer 2"><g id="Layer_1-2" data-name="Layer 1"><g id="_Group_" data-name="&lt;Group&gt;"><path class="cls-1" d="M41.54,835.57a8.77,8.77,0,0,0,2.05,6.22A7.52,7.52,0,0,0,49.37,844a7.92,7.92,0,0,0,5.72-2,7.42,7.42,0,0,0,2-5.58l.52,8a11.09,11.09,0,0,1-3.84,4.76,10.89,10.89,0,0,1-6.54,1.92q-6.34,0-9.8-4.08T34,835.57V812.26h7.54Zm15.58-23.31h7.5v38.33h-7.5Z"/><path class="cls-1" d="M82.11,812.26h7.54v38.33H82.11Zm23.27,15.11a8.74,8.74,0,0,0-2.11-6.28,7.74,7.74,0,0,0-5.9-2.22,7.86,7.86,0,0,0-5.71,2,7.33,7.33,0,0,0-2,5.5L88.87,819a13.67,13.67,0,0,1,4.64-5.36,11.3,11.3,0,0,1,6.33-1.88q6.24,0,9.66,4.08t3.41,11.54v23.26h-7.53Z"/><path class="cls-1" d="M130.41,796.9h7.53v7.53h-7.53Zm0,15.36h7.53v38.33h-7.53Z"/><path class="cls-1" d="M160.41,849.43a11.63,11.63,0,0,1-4.53-5.33,20.82,20.82,0,0,1-1.55-8.42v-8.46a21.29,21.29,0,0,1,1.52-8.46,11.47,11.47,0,0,1,4.41-5.33,12.76,12.76,0,0,1,7-1.83,11.46,11.46,0,0,1,6.22,1.77,13,13,0,0,1,4.56,5l-.77,7.83a9.12,9.12,0,0,0-.89-4.18,6.1,6.1,0,0,0-2.56-2.64,8.54,8.54,0,0,0-4.08-.9,7.28,7.28,0,0,0-5.78,2.32,9.55,9.55,0,0,0-2,6.54v8.35a9.26,9.26,0,0,0,2,6.44,7.39,7.39,0,0,0,5.78,2.27,8.21,8.21,0,0,0,4.08-.94,6.21,6.21,0,0,0,2.56-2.71,9.45,9.45,0,0,0,.89-4.25l.52,8.09a11,11,0,0,1-3.75,4.76,10.51,10.51,0,0,1-6.41,1.92A13.42,13.42,0,0,1,160.41,849.43Zm16.82-52.53h7.53v53.69h-7.53Z"/><path class="cls-1" d="M208.43,849.19a12.82,12.82,0,0,1-5.41-5.7,20,20,0,0,1-1.87-9v-6.24A19.58,19.58,0,0,1,203,819.3a12.75,12.75,0,0,1,5.41-5.65,19.72,19.72,0,0,1,17.06,0,12.86,12.86,0,0,1,5.41,5.65,19.71,19.71,0,0,1,1.86,8.92v6.35a19.79,19.79,0,0,1-1.86,8.95,13,13,0,0,1-5.41,5.67,19.54,19.54,0,0,1-17.06,0Zm14.64-7.68a10.21,10.21,0,0,0,2.16-6.94v-6.35q0-4.47-2.16-6.91a8.87,8.87,0,0,0-12.22,0c-1.45,1.63-2.16,3.93-2.16,6.91v6.35c0,3,.71,5.29,2.16,6.94a8.79,8.79,0,0,0,12.22,0Z"/><path class="cls-1" d="M259.68,851.15l-3-.67a22.75,22.75,0,0,1-5.55-2,21.7,21.7,0,0,1-4.77-3.32l4.47-5.51a25.11,25.11,0,0,0,6.17,3.55,16.67,16.67,0,0,0,6.05,1.18q4.47,0,6.71-1.38a4.58,4.58,0,0,0,2.23-4.16,3.27,3.27,0,0,0-1.22-2.77,6.93,6.93,0,0,0-3-1.24c-1.2-.2-2.9-.39-5.09-.57-.2,0-.41,0-.63,0l-.63,0-.29,0-.3,0a29.21,29.21,0,0,1-6.31-1.09,8.61,8.61,0,0,1-4.31-3,9.91,9.91,0,0,1-1.71-6.24,12.66,12.66,0,0,1,1.66-6.76,10.11,10.11,0,0,1,4.95-4,21.76,21.76,0,0,1,8.23-1.35,28.44,28.44,0,0,1,5.71.55,25.37,25.37,0,0,1,9.95,4.4l-4.54,5.5a25.5,25.5,0,0,0-5.67-2.77,17.46,17.46,0,0,0-5.45-.92,10.31,10.31,0,0,0-5.76,1.31,4.43,4.43,0,0,0-1.92,3.93,2.66,2.66,0,0,0,1.09,2.33,6.43,6.43,0,0,0,2.75,1c1.11.17,2.68.32,4.73.44a2.32,2.32,0,0,0,.46,0,2.89,2.89,0,0,1,.5,0h.22a.57.57,0,0,1,.22,0,32.65,32.65,0,0,1,6.85,1.07,9.25,9.25,0,0,1,4.75,3.21q1.92,2.4,1.92,6.94a12.22,12.22,0,0,1-1.78,6.85,10.69,10.69,0,0,1-5.33,4.08,25.27,25.27,0,0,1-9,1.37Z"/><path class="cls-1" d="M313.76,812.26h7.54v53.92h-7.54Zm10.93,37.17a10,10,0,0,1-3.91-4.85l.52-8a9.16,9.16,0,0,0,.88,4.21,6.12,6.12,0,0,0,2.57,2.66,8.31,8.31,0,0,0,4.08.92,7.37,7.37,0,0,0,5.78-2.27,9.2,9.2,0,0,0,2.05-6.4v-8.31a9.55,9.55,0,0,0-2.05-6.54,7.3,7.3,0,0,0-5.78-2.33,8.66,8.66,0,0,0-4.08.89,6,6,0,0,0-2.57,2.6,8.92,8.92,0,0,0-.88,4.12l-.78-7.38a13.35,13.35,0,0,1,4.54-5.19,11.2,11.2,0,0,1,6.24-1.83,12.82,12.82,0,0,1,7,1.83,11.52,11.52,0,0,1,4.41,5.33,21.29,21.29,0,0,1,1.51,8.46v8.35a20.23,20.23,0,0,1-1.55,8.34,11.5,11.5,0,0,1-4.54,5.3,13.47,13.47,0,0,1-7.16,1.83A11.25,11.25,0,0,1,324.69,849.43Z"/><path class="cls-1" d="M371.33,851.15l-3.77-2a13.3,13.3,0,0,1-5.74-5.85,20.21,20.21,0,0,1-2-9.32v-4.32a22.62,22.62,0,0,1,1.91-9.72,13.57,13.57,0,0,1,5.52-6.13,17,17,0,0,1,8.71-2.1,13.86,13.86,0,0,1,8.2,2.4,15,15,0,0,1,5.19,6.94,29.8,29.8,0,0,1,1.79,10.9v2.51H365.31V828.4H384a12.89,12.89,0,0,0-2.41-7.29,6.81,6.81,0,0,0-5.6-2.61,8.18,8.18,0,0,0-6.63,2.81q-2.34,2.81-2.34,7.94v4.88c0,3.17.83,5.61,2.51,7.31s4.05,2.54,7.13,2.54a11.81,11.81,0,0,0,4.54-.92,13.11,13.11,0,0,0,4-2.58l5,4.94a20.46,20.46,0,0,1-6.39,4.23,18.14,18.14,0,0,1-7.12,1.5Z"/><path class="cls-1" d="M415.08,840.7a3.37,3.37,0,0,0,.61,2.16,2.1,2.1,0,0,0,1.72.76H421v7.16h-4.43a8.4,8.4,0,0,1-6.63-2.66q-2.34-2.65-2.34-7.5V796.9h7.53Z"/><path class="cls-1" d="M441.66,849.19a12.92,12.92,0,0,1-5.41-5.7,20.14,20.14,0,0,1-1.86-9v-6.24a19.71,19.71,0,0,1,1.86-8.92,12.86,12.86,0,0,1,5.41-5.65,19.72,19.72,0,0,1,17.06,0,12.75,12.75,0,0,1,5.41,5.65,19.58,19.58,0,0,1,1.87,8.92v6.35a19.66,19.66,0,0,1-1.87,8.95,12.85,12.85,0,0,1-5.41,5.67,19.54,19.54,0,0,1-17.06,0Zm14.64-7.68c1.45-1.65,2.16-4,2.16-6.94v-6.35c0-3-.71-5.28-2.16-6.91a8.87,8.87,0,0,0-12.22,0q-2.16,2.45-2.16,6.91v6.35a10.21,10.21,0,0,0,2.16,6.94,8.79,8.79,0,0,0,12.22,0Z"/><path class="cls-1" d="M492.91,851.15l-3-.67a23,23,0,0,1-5.56-2,21.88,21.88,0,0,1-4.76-3.32l4.47-5.51a25.24,25.24,0,0,0,6.16,3.55,16.76,16.76,0,0,0,6.06,1.18q4.47,0,6.7-1.38a4.58,4.58,0,0,0,2.24-4.16,3.27,3.27,0,0,0-1.22-2.77,6.93,6.93,0,0,0-3-1.24q-1.81-.3-5.1-.57c-.19,0-.4,0-.62,0l-.63,0-.3,0-.29,0a29.43,29.43,0,0,1-6.32-1.09,8.62,8.62,0,0,1-4.3-3,9.91,9.91,0,0,1-1.72-6.24,12.66,12.66,0,0,1,1.67-6.76,10,10,0,0,1,4.94-4,21.85,21.85,0,0,1,8.24-1.35,28.41,28.41,0,0,1,5.7.55,25.5,25.5,0,0,1,10,4.4l-4.55,5.5a25.65,25.65,0,0,0-5.66-2.77,17.46,17.46,0,0,0-5.45-.92,10.31,10.31,0,0,0-5.76,1.31,4.43,4.43,0,0,0-1.92,3.93A2.66,2.66,0,0,0,490,826a6.38,6.38,0,0,0,2.75,1c1.11.17,2.68.32,4.73.44a2.25,2.25,0,0,0,.46,0,3,3,0,0,1,.5,0h.22a.6.6,0,0,1,.22,0,32.65,32.65,0,0,1,6.85,1.07,9.22,9.22,0,0,1,4.74,3.21q1.92,2.4,1.92,6.94a12.3,12.3,0,0,1-1.77,6.85,10.69,10.69,0,0,1-5.33,4.08,25.31,25.31,0,0,1-9,1.37Z"/><path class="cls-1" d="M65.72,940.18a11.45,11.45,0,0,1-4.52-5.33,20.65,20.65,0,0,1-1.56-8.42V918a21.23,21.23,0,0,1,1.52-8.45,11.5,11.5,0,0,1,4.41-5.34,12.76,12.76,0,0,1,7-1.83,11.38,11.38,0,0,1,6.22,1.78,13,13,0,0,1,4.56,5l-.77,7.83a9,9,0,0,0-.89-4.17,6,6,0,0,0-2.56-2.64,8.42,8.42,0,0,0-4.08-.91,7.29,7.29,0,0,0-5.78,2.33,9.54,9.54,0,0,0-2,6.53v8.35a9.26,9.26,0,0,0,2,6.44A7.35,7.35,0,0,0,75,935.14a8.21,8.21,0,0,0,4.08-.94,6.21,6.21,0,0,0,2.56-2.71,9.42,9.42,0,0,0,.89-4.25l.52,8.09a11,11,0,0,1-3.75,4.76A10.51,10.51,0,0,1,72.9,942,13.42,13.42,0,0,1,65.72,940.18ZM82.54,903h7.53v53.91H82.54Z"/><path class="cls-1" d="M115.1,926.32a8.8,8.8,0,0,0,2.05,6.22,7.51,7.51,0,0,0,5.78,2.2,7.92,7.92,0,0,0,5.73-2,7.39,7.39,0,0,0,2-5.58l.51,8a10.83,10.83,0,0,1-10.37,6.68q-6.36,0-9.81-4.08t-3.45-11.5V903h7.53ZM130.69,903h7.49v38.33h-7.49Z"/><path class="cls-1" d="M157.34,939q-3.51-2.94-3.51-8.92c0-3.79,1.08-6.64,3.22-8.53s5.38-2.85,9.71-2.85h10.89l.52,6.06H166.8a6.48,6.48,0,0,0-4.42,1.31,5.14,5.14,0,0,0-1.45,4,5,5,0,0,0,1.93,4.32q1.95,1.39,5.89,1.4a17.2,17.2,0,0,0,6.45-.92,3.05,3.05,0,0,0,2.12-2.88l.78,5.39a9.07,9.07,0,0,1-2.46,2.55,10.72,10.72,0,0,1-3.38,1.49,16.86,16.86,0,0,1-4.32.5Q160.85,941.9,157.34,939Zm20-21.92a8.08,8.08,0,0,0-2-5.85,7.57,7.57,0,0,0-5.71-2.09,14.56,14.56,0,0,0-4.48.7,13.22,13.22,0,0,0-3.9,2l-5.5-3.77a14.28,14.28,0,0,1,5.74-4.08,20.8,20.8,0,0,1,7.92-1.46,18.22,18.22,0,0,1,8.16,1.68,11.64,11.64,0,0,1,5.17,4.88,15.65,15.65,0,0,1,1.77,7.7v24.63h-7.16Z"/><path class="cls-1" d="M207,940.18a11.45,11.45,0,0,1-4.52-5.33,20.65,20.65,0,0,1-1.55-8.42V918a21.24,21.24,0,0,1,1.51-8.45,11.5,11.5,0,0,1,4.41-5.34,12.76,12.76,0,0,1,7-1.83,11.38,11.38,0,0,1,6.22,1.78,13,13,0,0,1,4.57,5l-.78,7.83a9,9,0,0,0-.89-4.17,6,6,0,0,0-2.56-2.64,8.42,8.42,0,0,0-4.08-.91,7.29,7.29,0,0,0-5.78,2.33,9.54,9.54,0,0,0-2.05,6.53v8.35a9.26,9.26,0,0,0,2.05,6.44,7.35,7.35,0,0,0,5.78,2.27,8.21,8.21,0,0,0,4.08-.94,6.21,6.21,0,0,0,2.56-2.71,9.42,9.42,0,0,0,.89-4.25l.52,8.09a11,11,0,0,1-3.75,4.76,10.51,10.51,0,0,1-6.41,1.92A13.44,13.44,0,0,1,207,940.18Zm16.82-52.52h7.53v53.69h-7.53Z"/><path class="cls-1" d="M248.8,903h7.53v38.33H248.8Zm18.58,7.24a9.09,9.09,0,0,0-3.51-.63,7.55,7.55,0,0,0-5.56,2,7.42,7.42,0,0,0-2,5.49l-.77-7.39a14.1,14.1,0,0,1,4.58-5.34,10.87,10.87,0,0,1,6.2-1.9,14.21,14.21,0,0,1,4.75.76,10.67,10.67,0,0,1,3.71,2.23l-4.91,6.65A6.33,6.33,0,0,0,267.38,910.26Z"/><path class="cls-1" d="M287.13,887.66h7.53v7.53h-7.53Zm0,15.36h7.53v38.33h-7.53Z"/><path class="cls-1" d="M312.16,903h7.53v38.33h-7.53Zm23.26,15.1a8.78,8.78,0,0,0-2.1-6.28,9.16,9.16,0,0,0-11.62-.26,7.34,7.34,0,0,0-2,5.51l-.78-7.39a13.72,13.72,0,0,1,4.64-5.35,11.25,11.25,0,0,1,6.33-1.89q6.24,0,9.66,4.08T343,918.08v23.27h-7.53Z"/><path class="cls-1" d="M360.45,887.66H368v53.69h-7.54Zm23.27,30.46a8.74,8.74,0,0,0-2.11-6.28,7.78,7.78,0,0,0-5.91-2.21,7.93,7.93,0,0,0-5.7,1.92,7.15,7.15,0,0,0-2,5.43l-.78-7.39a13.69,13.69,0,0,1,4.63-5.26,11.4,11.4,0,0,1,6.34-1.87q6.24,0,9.65,4.08t3.42,11.54v23.27h-7.53Z"/><path class="cls-1" d="M414.92,939.94a12.89,12.89,0,0,1-5.42-5.7,20.14,20.14,0,0,1-1.86-9V919a19.74,19.74,0,0,1,1.86-8.92,12.88,12.88,0,0,1,5.42-5.65,19.72,19.72,0,0,1,17.06,0,12.91,12.91,0,0,1,5.41,5.65,19.74,19.74,0,0,1,1.86,8.92v6.35a19.83,19.83,0,0,1-1.86,9,13,13,0,0,1-5.41,5.66,19.54,19.54,0,0,1-17.06,0Zm14.64-7.68a10.21,10.21,0,0,0,2.16-6.94V919q0-4.47-2.16-6.91a8.91,8.91,0,0,0-12.23,0q-2.16,2.45-2.16,6.91v6.35a10.21,10.21,0,0,0,2.16,6.94,8.78,8.78,0,0,0,12.23,0Z"/><path class="cls-1" d="M466.16,941.9l-3-.66a23.43,23.43,0,0,1-5.56-2,21.54,21.54,0,0,1-4.76-3.32l4.47-5.5A25.52,25.52,0,0,0,463.5,934a16.76,16.76,0,0,0,6.06,1.18q4.47,0,6.7-1.38a4.57,4.57,0,0,0,2.24-4.16,3.24,3.24,0,0,0-1.22-2.76,6.81,6.81,0,0,0-3-1.24c-1.21-.21-2.9-.4-5.09-.57l-.63,0a6.12,6.12,0,0,1-.63-.06,1.51,1.51,0,0,1-.3,0h-.29a30.06,30.06,0,0,1-6.32-1.09,8.58,8.58,0,0,1-4.3-3,9.91,9.91,0,0,1-1.72-6.24,12.66,12.66,0,0,1,1.67-6.76,10.09,10.09,0,0,1,4.94-4,21.85,21.85,0,0,1,8.24-1.35,28.5,28.5,0,0,1,5.71.56,25.4,25.4,0,0,1,5.18,1.64,26,26,0,0,1,4.77,2.75l-4.54,5.5a25.71,25.71,0,0,0-5.67-2.77,17.46,17.46,0,0,0-5.45-.92,10.31,10.31,0,0,0-5.76,1.31,4.46,4.46,0,0,0-1.92,3.93,2.66,2.66,0,0,0,1.09,2.33,6.38,6.38,0,0,0,2.75,1c1.11.17,2.68.31,4.73.44a3.33,3.33,0,0,0,.46,0,4.57,4.57,0,0,1,.5,0h.22a.57.57,0,0,1,.22,0,32.65,32.65,0,0,1,6.85,1.07,9.29,9.29,0,0,1,4.75,3.21c1.27,1.6,1.92,3.92,1.92,6.94a12.33,12.33,0,0,1-1.78,6.86,10.75,10.75,0,0,1-5.33,4.08,25.29,25.29,0,0,1-9,1.36Z"/></g><rect id="_Path_" data-name="&lt;Path&gt;" class="cls-2" x="3" y="3" width="539" height="763"/><g id="_Group_2" data-name="&lt;Group&gt;"><polygon id="_Path_2" data-name="&lt;Path&gt;" class="cls-3" points="304 259 304 391 49 391 49 87 209 87 209 259 304 259"/><polygon id="_Path_3" data-name="&lt;Path&gt;" class="cls-3" points="463 408 463 711 416 711 416 676 332 676 332 711 283 711 283 408 463 408"/><rect id="_Path_4" data-name="&lt;Path&gt;" class="cls-3" x="323" y="182" width="139" height="209"/><rect id="_Path_5" data-name="&lt;Path&gt;" class="cls-3" x="323" y="87" width="139" height="74"/><polygon id="_Path_6" data-name="&lt;Path&gt;" class="cls-3" points="262 539 262 407 49 407 49 710 156.47 710 196.89 710 209.93 710 262 710 262 577 179 577 179 625 196 625 196 647 156 647 156 539 262 539"/></g><polygon class="cls-3" points="463 711 463 683.65 494.81 683.65 463 711"/><polygon class="cls-3" points="332 711 332 683.65 363.13 683.65 332 711"/><polygon class="cls-3" points="262 710 262 682.34 294.03 682.34 262 710"/><polygon class="cls-3" points="262 538.98 262 511.53 294.03 511.53 262 538.98"/><polygon class="cls-3" points="461.5 390.33 461.5 362.88 493.54 362.88 461.5 390.33"/><polygon class="cls-3" points="461.5 160.84 461.5 133.39 493.54 133.39 461.5 160.84"/><polygon class="cls-3" points="354.01 155.56 354.01 182 323 182 354.01 155.56"/><polygon class="cls-3" points="354.01 60.37 354.01 87 323 87 354.01 60.37"/><polygon class="cls-3" points="80.19 60.37 80.19 87 49 87 80.19 60.37"/><polygon class="cls-3" points="210.7 549.53 210.7 576.98 178.67 576.98 210.7 549.53"/><rect id="_Path_7" data-name="&lt;Path&gt;" class="cls-3" x="49" y="348" width="412.5" height="67"/><polygon class="cls-4" points="294.03 511.53 294.03 538.98 262 538.98 294.03 511.53"/><rect class="cls-4" x="282.08" y="526.15" width="14.79" height="20.42"/><rect class="cls-4" x="292.25" y="513.32" width="4.63" height="33.25"/><polygon class="cls-4" points="282.08 538.98 294.03 538.98 294.03 513.32 291.94 513.32 282.08 521.77 282.08 538.98"/><g id="_Group_3" data-name="&lt;Group&gt;"><polygon class="cls-1" points="83.02 360.05 83.02 63.2 237.74 63.2 237.74 234.02 332.93 234.02 332.93 360.05 83.02 360.05"/><path class="cls-5" d="M234.9,66V236.85h95.19V357.21H85.86V66h149m5.67-5.67H80.19V362.88H335.76V231.18H240.57V60.37Z"/><path class="cls-4" d="M240.57,60.37V231.18h95.19v131.7H80.19V60.37H240.57m2.84-2.84H77.35V365.71H338.59V228.35H243.41V57.53Z"/></g><g id="_Group_4" data-name="&lt;Group&gt;"><polygon class="cls-1" points="450.73 680.81 450.73 645.61 360.31 645.61 360.31 680.81 317.73 680.81 317.73 383.97 492 383.97 492 680.81 450.73 680.81"/><path class="cls-5" d="M489.17,386.8V678h-35.6V642.77h-96.1V678h-36.9V386.8h168.6m5.67-5.66H314.9V683.65h48.24V648.44H447.9v35.21h46.94V381.14Z"/><path class="cls-4" d="M494.84,381.14V683.65H447.9V648.44H363.14v35.21H314.9V381.14H494.84m2.83-2.84H312.06V686.48H366v-35.2h79.08v35.2h52.61V378.3Z"/></g><g id="_Group_5" data-name="&lt;Group&gt;"><rect class="cls-1" x="356.85" y="158.39" width="133.85" height="201.66"/><path class="cls-5" d="M487.87,161.22v196H359.68v-196H487.87m5.66-5.66H354V362.88H493.53V155.56Z"/><path class="cls-4" d="M493.53,155.56V362.88H354V155.56H493.53m2.84-2.84H351.18v213H496.37v-213Z"/></g><g id="_Group_6" data-name="&lt;Group&gt;"><rect class="cls-1" x="356.85" y="63.2" width="133.85" height="67.35"/><path class="cls-5" d="M487.87,66v61.68H359.68V66H487.87m5.66-5.67H354v73H493.53v-73Z"/><path class="cls-4" d="M493.53,60.37v73H354v-73H493.53m2.84-2.84H351.18v78.69H496.37V57.53Z"/></g><g id="_Group_7" data-name="&lt;Group&gt;"><polygon class="cls-1" points="83.02 679.51 83.02 382.67 291.2 382.67 291.2 508.69 184.28 508.69 184.28 600.42 213.42 600.42 213.42 552.18 291.2 552.18 291.2 679.51 83.02 679.51"/><path class="cls-5" d="M288.36,385.5V505.86H181.44v97.4h34.81V555h72.11V676.67H85.86V385.5h202.5m5.67-5.67H80.19V682.34H294v-133H210.58v48.25H187.11V511.53H294V379.83Z"/><path class="cls-4" d="M294,379.83v131.7H187.11v86.06h23.47V549.34H294v133H80.19V379.83H294m2.84-2.83H77.35V685.18H296.87V546.51H207.75v48.24H190V514.36H296.87V377Z"/></g></g></g></svg>