<svg xmlns="http://www.w3.org/2000/svg" viewBox="0 0 529.24 529.24"><defs><style>.cls-1{fill:#fedc16;}.cls-2{fill:#d50951;}.cls-3{fill:#fff;}.cls-4{fill:#000100;}</style></defs><title>liga-quadrado-o-sl</title><g id="Layer_2" data-name="Layer 2"><g id="Layer_1-2" data-name="Layer 1"><rect class="cls-1" width="529.24" height="529.24"/><polygon id="_Path_" data-name="&lt;Path&gt;" class="cls-2" points="389.81 301.99 389.81 450.04 103.8 450.04 103.8 109.06 283.26 109.06 283.26 301.99 389.81 301.99"/><polygon class="cls-2" points="389.81 450.04 389.81 418.5 425.44 418.5 389.81 450.04"/><polygon class="cls-2" points="138.78 79.19 138.78 109.06 103.8 109.06 138.78 79.19"/><g id="_Group_" data-name="&lt;Group&gt;"><polygon class="cls-3" points="141.62 415.67 141.62 82.03 315.84 82.03 315.84 273.62 422.6 273.62 422.6 415.67 141.62 415.67"/><path class="cls-4" d="M313,84.86V276.45H419.77V412.83H144.45v-328H313m5.67-5.67H138.78V418.5H425.44V270.79H318.67V79.19Z"/><path class="cls-1" d="M318.67,79.19v191.6H425.44V418.5H138.78V79.19H318.67m2.84-2.83H136v345H428.27V268H321.51V76.36Z"/></g></g></g></svg>