<svg xmlns="http://www.w3.org/2000/svg" viewBox="0 0 529.24 529.24"><defs><style>.cls-1{fill:#fedc16;}.cls-2{fill:#d50951;}.cls-3{fill:#fff;}.cls-4{fill:#000100;}</style></defs><title>liga-quadrado-sl</title><g id="Layer_2" data-name="Layer 2"><g id="Layer_1-2" data-name="Layer 1"><rect class="cls-1" width="529.24" height="529.24"/><polygon id="_Path_" data-name="&lt;Path&gt;" class="cls-2" points="389.81 301.99 389.81 450.04 103.8 450.04 103.8 109.06 283.26 109.06 283.26 301.99 389.81 301.99"/><polygon class="cls-2" points="389.81 450.04 389.81 418.5 425.44 418.5 389.81 450.04"/><polygon class="cls-2" points="138.78 79.19 138.78 109.06 103.8 109.06 138.78 79.19"/><g id="_Group_" data-name="&lt;Group&gt;"><polygon class="cls-3" points="141.78 415.5 141.78 82.19 315.67 82.19 315.67 273.79 422.44 273.79 422.44 415.5 141.78 415.5"/><path class="cls-4" d="M312.67,85.19v191.6H419.44V412.5H144.78V85.19H312.67m6-6H138.78V418.5H425.44V270.79H318.67V79.19Z"/><path class="cls-1" d="M318.67,79.19v191.6H425.44V418.5H138.78V79.19H318.67m12-12H126.78V430.5H437.44V258.79H330.67V67.19Z"/></g></g></g></svg>